<svg xmlns="http://www.w3.org/2000/svg" width="50" height="50" viewBox="0 0 50 50">
  <defs>
    <style>
      .cls-1 {
        fill: #111;
        fill-rule: evenodd;
      }
    </style>
  </defs>
  <path class="cls-1" d="M34.136,17.537q-0.269-.135-0.522-0.3a7.3,7.3,0,0,1-1.342-1.112,6.11,6.11,0,0,1-1.512-3.044h0.006A3.66,3.66,0,0,1,30.7,12H26.147V29.195c0,0.231,0,.459-0.01.684,0,0.028,0,.054,0,0.084a0.179,0.179,0,0,1,0,.038v0.01a3.769,3.769,0,0,1-1.947,3,3.876,3.876,0,0,1-1.886.485,3.776,3.776,0,1,1,0-7.552,3.894,3.894,0,0,1,1.184.183L23.487,21.6a8.613,8.613,0,0,0-6.523,1.862,8.773,8.773,0,0,0-1.952,2.348,7.99,7.99,0,0,0-1.006,3.735,8.621,8.621,0,0,0,.489,2.952v0.011a8.621,8.621,0,0,0,1.237,2.2,9.172,9.172,0,0,0,1.974,1.817V36.513l0.011,0.011a8.692,8.692,0,0,0,4.653,1.367,8.413,8.413,0,0,0,3.453-.745,8.633,8.633,0,0,0,2.8-2.056,8.508,8.508,0,0,0,1.528-2.477,9.08,9.08,0,0,0,.55-2.833V20.657c0.055,0.032.792,0.508,0.792,0.508a10.675,10.675,0,0,0,2.716,1.1A16.013,16.013,0,0,0,37,22.632V18.218A6.03,6.03,0,0,1,34.136,17.537Z"/>
</svg>
