<svg xmlns="http://www.w3.org/2000/svg" width="21" height="16" viewBox="0 0 21 16">
  <metadata><?xpacket begin="﻿" id="W5M0MpCehiHzreSzNTczkc9d"?>
<x:xmpmeta xmlns:x="adobe:ns:meta/" x:xmptk="Adobe XMP Core 5.6-c138 79.159824, 2016/09/14-01:09:01        ">
   <rdf:RDF xmlns:rdf="http://www.w3.org/1999/02/22-rdf-syntax-ns#">
      <rdf:Description rdf:about=""/>
   </rdf:RDF>
</x:xmpmeta>
                                                                                                    
                                                                                                    
                                                                                                    
                                                                                                    
                                                                                                    
                                                                                                    
                                                                                                    
                                                                                                    
                                                                                                    
                                                                                                    
                                                                                                    
                                                                                                    
                                                                                                    
                                                                                                    
                                                                                                    
                                                                                                    
                                                                                                    
                                                                                                    
                                                                                                    
                                                                                                    
                           
<?xpacket end="w"?></metadata>
<defs>
    <style>
      .cls-1 {
        fill: #111;
        fill-rule: evenodd;
      }
    </style>
  </defs>
  <path class="cls-1" d="M9.986,1A10.633,10.633,0,0,0,.006,8.3a0.626,0.626,0,0,0,0,.4A10.633,10.633,0,0,0,9.986,16a10.633,10.633,0,0,0,9.98-7.3,0.625,0.625,0,0,0,0-.4A10.633,10.633,0,0,0,9.986,1h0Zm0,13.75A9.373,9.373,0,0,1,1.262,8.5,9.373,9.373,0,0,1,9.986,2.25,9.373,9.373,0,0,1,18.71,8.5,9.373,9.373,0,0,1,9.986,14.75Zm0-10A3.75,3.75,0,1,0,13.742,8.5,3.757,3.757,0,0,0,9.986,4.75Zm0,6.25a2.5,2.5,0,1,1,2.5-2.5A2.5,2.5,0,0,1,9.986,11Z"/>
</svg>
